<svg preserveAspectRatio="none" width="100%" height="100%" overflow="visible" style="display: block;" viewBox="0 0 17 17" fill="none" xmlns="http://www.w3.org/2000/svg">
<g id="ico">
<path id="Vector" d="M8.5 16C12.6421 16 16 12.6421 16 8.5C16 4.35786 12.6421 1 8.5 1C4.35786 1 1 4.35786 1 8.5C1 12.6421 4.35786 16 8.5 16Z" stroke="#707070"/>
<path id="Shape 3079" d="M8.498 11.5C8.39919 11.5004 8.30272 11.5301 8.22076 11.5853C8.1388 11.6404 8.07502 11.7187 8.03749 11.8101C7.99995 11.9015 7.99034 12.0019 8.00985 12.0988C8.02937 12.1956 8.07715 12.2845 8.14715 12.3543C8.21716 12.424 8.30624 12.4714 8.40318 12.4906C8.50011 12.5097 8.60055 12.4997 8.6918 12.4618C8.78305 12.4239 8.86102 12.3598 8.91587 12.2776C8.97073 12.1954 9 12.0988 9 12C9.00026 11.9341 8.98745 11.8688 8.96229 11.8079C8.93713 11.747 8.90013 11.6917 8.85344 11.6452C8.80674 11.5986 8.75129 11.5619 8.69027 11.537C8.62926 11.512 8.5639 11.4995 8.498 11.5Z" fill="#707070" stroke="#707070" stroke-width="0.7" stroke-linecap="round" stroke-linejoin="round"/>
<path id="&#237;&#140;&#168;&#236;&#138;&#164; 51638" d="M9.05098 7.69067C9.32304 7.55806 9.5536 7.35618 9.71845 7.10625C9.8833 6.85632 9.97636 6.56755 9.98785 6.27026C9.99022 6.09753 9.95584 5.92621 9.88691 5.76719C9.81798 5.60817 9.71599 5.46492 9.58744 5.34657C9.45889 5.22821 9.30659 5.13734 9.14022 5.07972C8.97385 5.02209 8.79705 4.99899 8.62106 5.01187C8.43923 5.00484 8.25782 5.03396 8.0878 5.09745C7.91778 5.16095 7.76266 5.25751 7.63181 5.3813C7.50096 5.50509 7.3971 5.65356 7.32649 5.81773C7.25587 5.9819 7.21997 6.15837 7.22096 6.3365H5.85938C5.86428 5.99489 5.9412 5.65796 6.08532 5.34681C6.22944 5.03566 6.43766 4.75699 6.69692 4.52827C6.95619 4.29955 7.26092 4.12571 7.59202 4.01763C7.92311 3.90956 8.27344 3.86958 8.62106 3.9002C8.96342 3.86207 9.31015 3.89478 9.63877 3.9962C9.9674 4.09762 10.2706 4.2655 10.5287 4.48894C10.7868 4.71239 10.9941 4.98642 11.1371 5.29328C11.2801 5.60015 11.3556 5.933 11.3588 6.27026C11.3685 6.70871 11.2533 7.14114 11.0261 7.51909C10.7988 7.89703 10.4685 8.20555 10.0722 8.41005C9.71831 8.58378 9.42648 8.85831 9.2351 9.19751C9.04372 9.53672 8.96174 9.9247 8.99997 10.3104V10.3848H7.71334V10.3083C7.63123 9.7901 7.71589 9.25968 7.95557 8.79065C8.19525 8.32161 8.57808 7.93718 9.05098 7.69067Z" fill="#707070"/>
</g>
</svg>